<svg width="250" height="250" viewBox="0 0 250 250" fill="none" xmlns="http://www.w3.org/2000/svg">
<g clip-path="url(#clip0_1589_1217)">
<path d="M124.877 248.431C127.024 250.137 127.046 251.49 130.071 248.435C136.848 241.59 147.492 223.792 151.375 217.501C156.991 208.4 153.918 200.405 153.149 196.921C152.371 193.439 152.004 196.702 170.383 186.466C188.755 176.232 191.273 163.534 191.19 157.39C191.115 151.244 198.346 146.56 204.858 136.948C211.37 127.335 212.831 124.09 197.437 122.306C182.035 120.532 173.391 142.542 169.676 147.215C165.953 151.89 167.192 172.114 155.896 181.984C144.599 191.854 147.512 176.108 149.784 173.038C152.056 169.968 152.837 167.174 151.728 157.37C150.62 147.575 170.967 128.708 174.909 122.342C178.852 115.975 169.218 97.2529 167.098 92.4834C164.972 87.7241 165.917 81.1546 161.262 75.2321C156.605 69.3011 151.254 76.9293 136.638 88.978C122.021 101.018 128.711 117.009 128.328 122.476C127.945 127.942 126.297 127.925 123.296 132.352C120.295 136.78 124.164 151.765 123.207 154.262C122.257 156.757 118.562 152.95 118.562 152.95C118.562 152.95 115.41 149.98 115.007 142.133C114.604 134.286 108.38 117.327 101.845 108.46C95.3103 99.5928 88.8779 98.1863 84.525 97.2621C80.1721 96.3379 88.9334 101.916 76.4122 100.246C63.891 98.5759 70.6857 101.342 70.6175 115.879C70.5494 130.417 74.6302 144.267 80.2197 150.452C85.8007 156.64 105.488 162.987 112.259 169.059C119.03 175.13 103.257 172.545 97.7304 169.532C92.2037 166.52 85.9227 168.163 80.1893 170.915C74.456 173.667 37.9174 171.762 57.9903 188.152C78.0632 204.542 89.165 203.409 97.6844 203.096C106.195 202.784 109.126 197.385 111.387 194.855C113.65 192.332 120.309 191.491 125.05 191.578C129.79 191.655 123.565 197.582 121.232 198.033C118.898 198.484 115.19 201.5 112.883 203.812C110.576 206.123 101.619 209.274 94.5883 209.303C87.5578 209.333 93.3228 213.616 99.7319 217.782C106.139 221.94 117.724 218.735 124.313 215.823C130.901 212.91 134.465 206.288 137.781 199.489C141.097 192.689 148.817 195.72 148.817 195.72C155.165 212.768 142.407 224.782 140.048 229.084L124.904 248.435L124.877 248.431Z" fill="#597241"/>
<path d="M68.511 212.086L46.142 224.416L46.1095 224.48L58.3822 230.685L57.3427 232.741L42.2749 225.123L43.2981 223.099L65.6351 210.753L65.6676 210.689L52.5595 204.062L53.599 202.006L69.5343 210.062L68.511 212.086Z" fill="#597241"/>
<path d="M43.161 195.632L40.5194 190.272L27.7318 196.574L30.3734 201.934L28.5328 202.841L24.8568 195.382L39.485 188.173L37.1617 183.458L39.0023 182.551L45.0016 194.725L43.161 195.632ZM19.7815 201.615L18.1424 198.289L21.4039 196.682L23.043 200.008L19.7815 201.615Z" fill="#597241"/>
<path d="M24.1815 163.72C21.3256 163.348 19.8 163.911 19.6046 165.411C19.4898 166.291 19.8981 167.059 20.8294 167.712C21.7607 168.366 22.9284 168.785 24.3325 168.968L35.8273 170.466L35.5341 172.715L17.3281 170.342L17.6213 168.093L20.0844 168.414L20.0891 168.378C19.282 167.886 18.6569 167.296 18.214 166.609C17.7473 165.919 17.5682 165.157 17.6768 164.325C17.7885 163.468 18.1775 162.804 18.8438 162.335C19.4863 161.862 20.3704 161.578 21.4962 161.482L21.5009 161.447C19.3703 160.152 18.412 158.684 18.626 157.042C18.7842 155.828 19.4169 154.967 20.524 154.458C21.6311 153.949 23.1128 153.815 24.9691 154.057L37.749 155.723L37.4558 157.972L25.14 156.366C22.2842 155.994 20.7601 156.546 20.5678 158.021C20.453 158.902 20.8597 159.681 21.7879 160.359C22.6954 161.009 23.8631 161.428 25.291 161.614L36.7858 163.112L36.4973 165.325L24.1815 163.72Z" fill="#597241"/>
<path d="M27.1895 137.193C24.3192 136.957 22.8221 137.592 22.698 139.099C22.6252 139.984 23.0695 140.731 24.0308 141.34C24.992 141.949 26.1783 142.312 27.5895 142.428L39.1425 143.378L38.9565 145.639L20.6583 144.133L20.8443 141.873L23.32 142.076L23.3229 142.04C22.4933 141.587 21.841 141.027 21.366 140.362C20.867 139.695 20.652 138.943 20.7209 138.106C20.7917 137.245 21.1488 136.564 21.792 136.063C22.4114 135.56 23.281 135.234 24.401 135.085L24.4039 135.05C22.2143 133.858 21.1874 132.437 21.3232 130.786C21.4236 129.567 22.0146 128.676 23.0963 128.115C24.178 127.554 25.6516 127.35 27.5173 127.503L40.3619 128.56L40.1759 130.821L27.7978 129.802C24.9275 129.566 23.4313 130.189 23.3092 131.672C23.2364 132.557 23.6797 133.316 24.639 133.949C25.5764 134.556 26.7626 134.919 28.1978 135.037L39.7507 135.987L39.5677 138.212L27.1895 137.193Z" fill="#597241"/>
<path d="M40.8263 109.584C40.9289 111.237 40.6109 112.699 39.8723 113.971C39.1098 115.245 38.018 116.251 36.5969 116.988C35.1744 117.702 33.529 118.116 31.6606 118.232C29.7442 118.351 28.0347 118.121 26.5318 117.541C25.029 116.961 23.8444 116.085 22.9781 114.912C22.1118 113.74 21.6288 112.351 21.5292 110.746C21.431 109.165 21.7295 107.776 22.4247 106.578C23.0958 105.382 24.0836 104.443 25.3878 103.761C26.6681 103.081 28.1586 102.688 29.8593 102.582C30.53 102.54 30.9619 102.526 31.155 102.538L31.976 115.76C33.244 115.657 34.4156 115.356 35.4907 114.857C36.5419 114.359 37.3768 113.669 37.9955 112.789C38.6126 111.885 38.884 110.835 38.8097 109.637C38.719 108.176 38.2299 107.076 37.3424 106.338C36.4535 105.575 35.4746 105.107 34.4057 104.933L34.2585 102.561C36.0818 102.881 37.607 103.628 38.8341 104.802C40.0358 105.954 40.6998 107.548 40.8263 109.584ZM29.2587 105.108C27.534 105.215 26.1258 105.771 25.034 106.777C23.9407 107.759 23.4454 109.076 23.548 110.729C23.6461 112.31 24.3013 113.568 25.5136 114.502C26.7019 115.438 28.1733 115.9 29.9279 115.887L29.2587 105.108Z" fill="#597241"/>
<path d="M46.0857 86.2426L51.4897 82.2887L52.7014 83.9448L41.7481 91.9588L40.5364 90.3027L44.1972 87.6243L35.7793 76.119L32.1185 78.7974L30.9068 77.1413L36.4561 73.0812L38.6669 76.1028L38.754 76.039C38.5207 74.6634 38.7003 73.283 39.2927 71.8979C39.9045 70.4987 40.8593 69.3243 42.1571 68.3748C42.9318 67.8079 43.602 67.3622 44.1674 67.0377L45.5279 68.8972C45.0786 69.1367 44.4182 69.5753 43.5466 70.213C42.5587 70.9357 41.7629 71.86 41.1592 72.9857C40.5748 74.0973 40.2754 75.253 40.2612 76.4529C40.2328 77.6335 40.5588 78.6886 41.239 79.6183L46.0857 86.2426Z" fill="#597241"/>
<path d="M59.5694 59.5074L61.8437 58.9568L62.5383 61.826L62.6433 61.8005C62.937 60.6676 63.4886 59.6822 64.2981 58.8442C65.1077 58.0061 66.2006 57.4205 67.5768 57.0874C68.9531 56.7542 70.2942 56.8369 71.6002 57.3356C72.9239 57.8054 74.0845 58.6726 75.0821 59.9374C76.0741 61.1788 76.8016 62.7559 77.2647 64.6687C77.7221 66.5581 77.7965 68.2933 77.4879 69.8743C77.1736 71.432 76.5381 72.7341 75.5815 73.7806C74.6425 74.7981 73.4849 75.4734 72.1087 75.8066C70.7091 76.1454 69.4577 76.1274 68.3545 75.7524C67.2457 75.3542 66.3076 74.6923 65.5403 73.7669L65.4353 73.7923L67.6632 82.9944L65.3889 83.545L59.5694 59.5074ZM64.0388 67.8706C64.3945 69.3402 64.9412 70.5783 65.6788 71.585C66.4108 72.5684 67.2583 73.2645 68.2216 73.6733C69.2082 74.0765 70.2379 74.1482 71.3109 73.8884C72.9671 73.4875 74.104 72.4715 74.7215 70.8404C75.339 69.2093 75.3937 67.344 74.8854 65.2447C74.3715 63.122 73.467 61.4766 72.1718 60.3086C70.8766 59.1406 69.4009 58.757 67.7447 59.158C66.6717 59.4178 65.7888 59.9525 65.0959 60.7623C64.4263 61.5664 63.9938 62.5848 63.7983 63.8174C63.6028 65.05 63.683 66.4011 64.0388 67.8706Z" fill="#597241"/>
<path d="M87.3115 54.7514L83.7389 55.7445L83.1894 53.7674L86.7619 52.7744L86.0388 50.173C85.5311 48.3463 85.5572 47.0063 86.1171 46.1532C86.6938 45.2705 87.7568 44.6139 89.306 44.1832C89.7685 44.0547 90.371 43.937 91.1135 43.8303L91.6438 45.7379C90.7985 45.9231 90.3065 46.0349 90.1677 46.0735C89.4509 46.2727 88.93 46.5047 88.605 46.7694C88.2736 47.011 88.0816 47.3508 88.029 47.7889C87.9931 48.1975 88.078 48.7717 88.2837 49.5117L89.0164 52.1477L93.1093 51.0101L93.6588 52.9871L89.566 54.1248L93.9335 69.8371L91.6789 70.4637L87.3115 54.7514ZM95.4684 42.6945L97.723 42.0678L104.616 66.8676L102.362 67.4942L95.4684 42.6945Z" fill="#597241"/>
<path d="M121.127 60.4805C119.553 61.4026 118.084 61.7208 116.721 61.435C115.357 61.1492 114.245 60.2712 113.383 58.801C112.74 57.7035 112.479 56.6882 112.6 55.7551C112.708 54.8013 113.101 53.9039 113.776 53.063C114.439 52.2013 115.413 51.2277 116.696 50.142C117.684 49.3125 118.405 48.6676 118.858 48.2072C119.312 47.7467 119.607 47.2538 119.744 46.7283C119.902 46.1908 119.799 45.6114 119.435 44.9902C118.962 44.1826 118.281 43.733 117.393 43.6415C116.514 43.5171 115.453 43.8189 114.21 44.547C112.823 45.3599 111.999 46.2322 111.738 47.1639C111.477 48.0956 111.643 49.1387 112.237 50.2933L110.124 51.5309C109.297 49.9294 109.122 48.349 109.599 46.7898C110.077 45.2306 111.309 43.8686 113.297 42.7037C114.974 41.7209 116.551 41.3256 118.026 41.518C119.502 41.7103 120.762 42.6968 121.805 44.4776L126.665 52.7707C127.005 53.3505 127.324 53.7057 127.623 53.8364C127.91 53.9464 128.261 53.8801 128.675 53.6374C128.923 53.4918 129.123 53.3334 129.272 53.162L130.128 54.6219C129.869 54.9403 129.45 55.2693 128.87 55.6091C128.146 56.0337 127.467 56.1811 126.835 56.051C126.223 55.9088 125.617 55.3736 125.017 54.4454L124.955 54.4818C124.918 55.6998 124.569 56.8363 123.907 57.8914C123.255 58.9137 122.328 59.7767 121.127 60.4805ZM115.495 57.5633C116.065 58.5366 116.749 59.1096 117.546 59.2825C118.351 59.4226 119.334 59.1529 120.493 58.4734C122.046 57.5634 123.042 56.4377 123.479 55.0962C123.938 53.7426 123.755 52.3618 122.93 50.9537L121.164 47.9409C121.069 48.4421 120.821 48.9211 120.421 49.378C120.029 49.802 119.24 50.5429 118.051 51.6008C116.996 52.553 116.225 53.3251 115.737 53.9168C115.27 54.4965 115.007 55.068 114.947 55.6313C114.888 56.1946 115.071 56.8386 115.495 57.5633Z" fill="#597241"/>
<path d="M134.352 32.1224L136.561 31.3513L137.439 33.8665L137.507 33.8428C137.787 32.7535 138.335 31.7742 139.151 30.9051C139.958 30.0133 141.064 29.3222 142.469 28.8319C144.168 28.2388 145.686 28.2554 147.024 28.8818C148.375 29.4776 149.383 30.7272 150.048 32.6306L154.235 44.6289L152.026 45.3999L148.005 33.8775C147.554 32.5859 146.888 31.6617 146.007 31.1048C145.119 30.5252 143.972 30.4806 142.567 30.9709C141.479 31.3505 140.595 31.9133 139.915 32.6591C139.258 33.397 138.833 34.2189 138.641 35.1248C138.44 36.0081 138.491 36.8802 138.791 37.7413L142.611 48.6859L140.402 49.457L134.352 32.1224Z" fill="#597241"/>
<path d="M163.872 43.7625L182.435 43.5052L182.49 43.4593L175.518 35.0238L177.1 33.7165L186.113 44.6215L184.976 45.5619L166.076 45.864L166.02 45.9099L173.819 55.3443L172.237 56.6516L162.512 44.8864L163.872 43.7625Z" fill="#597241"/>
<path d="M181.58 73.6476C180.93 72.1244 180.74 70.6399 181.01 69.1938C181.303 67.7383 181.995 66.4253 183.087 65.2548C184.189 64.1063 185.6 63.1647 187.322 62.43C189.088 61.6764 190.776 61.3214 192.387 61.365C193.997 61.4085 195.406 61.8377 196.615 62.6527C197.824 63.4677 198.744 64.6147 199.375 66.0936C199.997 67.5506 200.18 68.9595 199.926 70.3205C199.694 71.672 199.078 72.8875 198.077 73.9668C197.098 75.0367 195.825 75.9061 194.258 76.5748C193.64 76.8386 193.238 76.9971 193.052 77.0503L187.853 64.8652C186.692 65.3865 185.689 66.0625 184.843 66.8931C184.019 67.7143 183.463 68.6431 183.175 69.6794C182.896 70.7378 182.992 71.8189 183.463 72.9226C184.037 74.2691 184.866 75.1418 185.95 75.5406C187.042 75.9615 188.122 76.075 189.187 75.8814L190.119 78.0667C188.294 78.3758 186.607 78.1825 185.058 77.4867C183.54 76.8036 182.381 75.5239 181.58 73.6476ZM193.978 73.9934C195.568 73.3152 196.709 72.3196 197.401 71.0066C198.103 69.7157 198.128 68.3086 197.478 66.7855C196.857 65.3286 195.818 64.3626 194.363 63.8876C192.93 63.4032 191.389 63.4606 189.74 64.0599L193.978 73.9934Z" fill="#597241"/>
<path d="M207.019 86.3434L207.721 88.5758L205.179 89.3744L205.201 89.4431C206.281 89.7578 207.242 90.3361 208.085 91.1781C208.952 92.0129 209.608 93.14 210.054 94.5596C210.593 96.2768 210.529 97.7938 209.861 99.1106C209.223 100.443 207.943 101.412 206.019 102.016L193.896 105.825L193.194 103.593L204.837 99.9346C206.142 99.5245 207.087 98.888 207.671 98.0252C208.278 97.1552 208.359 96.0104 207.913 94.5909C207.567 93.4919 207.033 92.5907 206.308 91.8874C205.591 91.2071 204.783 90.7566 203.884 90.5361C203.007 90.3084 202.134 90.3312 201.264 90.6046L190.205 94.0795L189.503 91.8472L207.019 86.3434Z" fill="#597241"/>
</g>
<defs>
<clipPath id="clip0_1589_1217">
<rect width="250" height="250" fill="white"/>
</clipPath>
</defs>
</svg>
